<svg width="50" height="51" viewBox="0 0 50 51" fill="none" xmlns="http://www.w3.org/2000/svg">
<circle opacity="0.36" cx="25" cy="25.8438" r="25" fill="white"/>
<path fill-rule="evenodd" clip-rule="evenodd" d="M17 26.3335C17 25.7812 17.4477 25.3335 18 25.3335H32C32.5523 25.3335 33 25.7812 33 26.3335C33 26.8858 32.5523 27.3335 32 27.3335H18C17.4477 27.3335 17 26.8858 17 26.3335Z" fill="white"/>
<path fill-rule="evenodd" clip-rule="evenodd" d="M25.7071 18.6264C26.0976 19.0169 26.0976 19.6501 25.7071 20.0406L19.4142 26.3335L25.7071 32.6264C26.0976 33.0169 26.0976 33.6501 25.7071 34.0406C25.3166 34.4311 24.6834 34.4311 24.2929 34.0406L17.2929 27.0406C16.9024 26.6501 16.9024 26.0169 17.2929 25.6264L24.2929 18.6264C24.6834 18.2359 25.3166 18.2359 25.7071 18.6264Z" fill="white"/>
</svg>
