<svg width="50" height="51" viewBox="0 0 50 51" fill="none" xmlns="http://www.w3.org/2000/svg">
<circle opacity="0.36" cx="25" cy="25.8438" r="25" fill="white"/>
<path fill-rule="evenodd" clip-rule="evenodd" d="M17 25.9502C17 25.3979 17.4477 24.9502 18 24.9502H32C32.5523 24.9502 33 25.3979 33 25.9502C33 26.5025 32.5523 26.9502 32 26.9502H18C17.4477 26.9502 17 26.5025 17 25.9502Z" fill="white"/>
<path fill-rule="evenodd" clip-rule="evenodd" d="M24.2929 18.2431C24.6834 17.8526 25.3166 17.8526 25.7071 18.2431L32.7071 25.2431C33.0976 25.6336 33.0976 26.2668 32.7071 26.6573L25.7071 33.6573C25.3166 34.0478 24.6834 34.0478 24.2929 33.6573C23.9024 33.2668 23.9024 32.6336 24.2929 32.2431L30.5858 25.9502L24.2929 19.6573C23.9024 19.2668 23.9024 18.6336 24.2929 18.2431Z" fill="white"/>
</svg>
