<svg width="86" height="86" viewBox="0 0 86 86" fill="none" xmlns="http://www.w3.org/2000/svg">
<path d="M43.0688 9.75233C36.6704 17.4235 33.0928 23.8047 31.6308 30.0999C31.1836 31.9747 31.0116 35.8103 31.2868 37.4099C31.8028 40.3511 32.7832 42.2431 34.916 44.3759C36.6704 46.1303 38.2528 47.1107 40.6608 47.9019C42.8108 48.6243 44.204 48.8135 44.6856 48.4695C45.0296 48.2459 44.9608 48.1771 43.4644 47.4547C41.5036 46.5087 39.9556 45.0811 39.2676 43.5847C38.614 42.1571 38.528 40.1619 39.0268 38.1839C39.9728 34.3999 42.828 30.2203 47.7644 25.3355L50.4132 22.7211L48.6588 18.8855C47.6956 16.7699 46.698 14.5855 46.44 14.0179C46.182 13.4503 45.5628 12.0915 45.064 11.0079C44.5824 9.92433 44.1008 8.96113 44.032 8.89233C43.9632 8.80633 43.516 9.20193 43.0688 9.75233Z" fill="white"/>
<path d="M48.6244 26.6084C45.8552 29.412 44.7028 30.7708 43.258 32.9208C39.4912 38.5796 40.0416 42.7764 44.9092 45.6144C45.924 46.2164 46.956 46.4744 46.956 46.1132C46.956 46.0272 46.6464 45.6316 46.2508 45.2188C45.8552 44.806 45.3564 44.0836 45.1156 43.6192C44.7372 42.8624 44.6856 42.6044 44.7544 41.3832C44.806 40.2136 44.9264 39.818 45.4252 38.872C46.612 36.6188 49.5016 34.1248 52.89 32.4048C53.9392 31.8716 54.8164 31.4072 54.868 31.3728C54.954 31.2696 51.3936 24.08 51.256 24.08C51.1872 24.08 50.0176 25.2152 48.6244 26.6084Z" fill="white"/>
<path d="M52.0129 35.5524C51.2561 35.6212 50.5681 36.1372 49.6049 37.41C49.1405 37.9948 48.5041 39.0784 48.5041 39.2504C48.5041 39.2848 50.3445 39.302 52.5977 39.3192C55.7281 39.3192 57.0353 39.388 58.2221 39.6116C60.2861 40.0244 61.5417 40.6264 61.8513 41.3832C62.1781 42.14 61.9889 42.5872 60.9053 43.5504C57.8265 46.3196 47.8333 49.3812 37.4101 50.7572C33.6433 51.256 26.2301 51.3076 23.9941 50.8432C21.5689 50.3616 20.2617 49.3468 20.5541 48.1944C20.8465 47.042 23.1857 45.408 26.4881 44.0836C27.4857 43.6708 28.2253 43.344 28.1221 43.344C28.0361 43.344 27.2105 43.5332 26.3161 43.7568C20.5541 45.236 16.8561 47.6268 16.8561 49.88C16.8561 51.3592 18.5761 52.8212 21.4141 53.75C31.2353 56.932 51.7549 54.4552 64.1045 48.59C70.3653 45.6144 73.1345 42.5528 72.0165 39.8524C71.1221 37.754 66.9941 36.1544 60.9741 35.604C59.2025 35.4492 53.5953 35.4148 52.0129 35.5524Z" fill="white"/>
<path d="M15.6348 61.3524C15.6176 61.4384 15.6348 61.748 15.652 62.0404C15.6692 62.5048 15.6004 62.6424 15.222 62.78C14.9812 62.866 14.6028 62.952 14.3964 62.952C13.8116 62.952 12.3152 63.7088 11.7992 64.2592C11.0424 65.0676 10.7844 65.8244 10.7844 67.252C10.8016 69.7632 11.9712 71.1048 14.62 71.638L15.566 71.8272L15.6176 72.5496L15.6692 73.272H16.7872H17.888V72.5152V71.7756L18.7652 71.6552C20.4336 71.4316 21.8956 70.4168 22.4288 69.1096C22.7728 68.3012 22.79 66.2372 22.4632 65.4632C21.8956 64.0872 20.5712 63.1928 18.6276 62.866L17.888 62.7456V61.9888V61.232H16.77C16.1508 61.232 15.652 61.2836 15.6348 61.3524ZM15.6004 67.2864L15.566 69.746L15.0672 69.6944C13.9148 69.574 13.244 68.6624 13.244 67.252C13.244 65.79 13.9836 64.8612 15.1704 64.844H15.652L15.6004 67.2864ZM19.5564 65.4116C20.0896 65.9104 20.1928 66.1168 20.2616 66.9424C20.3648 68.2496 19.952 69.0752 19.0232 69.5052C17.8536 70.0384 17.888 70.09 17.888 67.338V64.844H18.404C18.748 64.844 19.1264 65.0332 19.5564 65.4116Z" fill="white"/>
<path d="M36.7564 61.6448C35.4148 62.1952 35.002 62.5048 34.3828 63.3476C33.2992 64.8268 32.8864 66.5812 33.196 68.4904C33.6776 71.6724 35.8276 73.4268 38.9924 73.2376C39.99 73.1688 40.4028 73.0484 41.0392 72.6528C42.2604 71.896 42.312 71.724 41.538 70.8124L40.9016 70.0384L40.2996 70.434C38.7516 71.5004 37.1004 71.0876 36.2576 69.4364C35.7932 68.5248 35.7416 66.2888 36.1716 65.36C36.9628 63.5884 38.9924 62.9864 40.3168 64.1388C40.6092 64.3968 40.6608 64.3624 41.2972 63.6572C41.6584 63.2444 41.968 62.8488 41.968 62.7628C41.968 62.5048 40.85 61.7824 40.0244 61.5072C38.8892 61.1288 37.926 61.1632 36.7564 61.6448Z" fill="white"/>
<path d="M23.5984 61.5244C23.2372 61.576 23.048 61.6792 23.0996 61.7996C23.1512 61.92 24.0112 63.7948 25.026 65.9964C26.2988 68.7656 26.832 70.09 26.746 70.348C26.6256 70.7092 26.1268 70.8984 25.2324 70.9328C24.7336 70.95 24.6992 71.0016 24.4928 71.982C24.3896 72.5496 24.3208 73.0656 24.3724 73.1344C24.4068 73.2204 24.9228 73.272 25.5076 73.272C26.8664 73.272 27.9328 72.7732 28.6036 71.81C29.0508 71.1392 32.9036 61.748 32.7832 61.6104C32.6284 61.4728 30.4268 61.5244 30.2892 61.662C30.2032 61.7652 29.7044 63.0724 29.1884 64.586C28.6724 66.0824 28.1736 67.3552 28.0876 67.3724C27.9844 67.4068 27.8468 67.2176 27.778 66.9596C27.6232 66.2716 25.9548 61.8684 25.8172 61.7136C25.6624 61.5416 24.3036 61.4212 23.5984 61.5244Z" fill="white"/>
<path d="M44.8749 61.5244L44.4277 61.5932L44.3245 65.3256C44.1869 69.9352 44.1697 72.2056 44.3073 72.7044C44.4105 73.0828 44.5137 73.1 45.8209 73.1L47.2141 73.0828L48.9857 69.5224C49.9489 67.5616 50.8089 65.7556 50.9121 65.4804C50.9981 65.2224 51.1701 65.016 51.2733 65.016C51.3937 65.016 51.4281 65.188 51.3421 65.4804C51.2905 65.7556 51.1873 67.5616 51.1357 69.5224L51.0497 73.1H52.3569H53.6641V67.3552V61.6104L52.8729 61.5416C52.4429 61.5072 51.7721 61.5072 51.3937 61.5416L50.7057 61.6104L48.7105 65.6352C47.6269 67.854 46.6981 69.6256 46.6637 69.5912C46.6121 69.5568 46.6637 68.6796 46.7669 67.6648C46.8701 66.65 46.9561 64.8784 46.9561 63.726V61.6104L46.4229 61.5072C45.8725 61.404 45.6661 61.404 44.8749 61.5244Z" fill="white"/>
<path d="M56.0204 61.5244C55.9516 61.576 55.9 64.2076 55.9 67.3724V73.1H57.2932H58.6692L58.6348 70.7264L58.6004 68.37L60.5956 68.3184L62.608 68.2668V70.692V73.1H63.898H65.188V67.3552V61.5932L64.4656 61.49C64.0528 61.4384 63.5368 61.4212 63.296 61.4728C63.0552 61.5072 62.8144 61.5588 62.7456 61.5588C62.6768 61.576 62.5908 62.5564 62.5736 63.7604L62.522 65.962H60.63H58.738L58.6864 63.7776L58.6348 61.6104L58.1016 61.5072C57.4136 61.3696 56.158 61.3696 56.0204 61.5244Z" fill="white"/>
<path d="M67.6477 61.5072C67.4757 61.576 67.4241 62.9176 67.4241 67.3552V73.1H70.0901C72.3433 73.1 72.8765 73.0484 73.6505 72.756C75.4221 72.068 76.1101 71.036 75.9897 69.1612C75.8693 66.8736 74.6825 65.9276 71.7241 65.7212L70.0901 65.618L70.0041 63.554L69.9181 61.49L68.8861 61.4556C68.3185 61.4384 67.7509 61.4728 67.6477 61.5072ZM72.2057 67.8712C73.0313 68.0432 73.4441 68.5248 73.4441 69.3332C73.4441 70.52 72.4637 71.1392 70.7781 71.0016L70.0901 70.95L70.0385 69.5912C70.0041 68.8344 70.0213 68.1292 70.0729 67.9916C70.1761 67.7508 71.2769 67.682 72.2057 67.8712Z" fill="white"/>
</svg>
